<?xml version="1.0" standalone="no"?>
<!DOCTYPE svg PUBLIC "-//W3C//DTD SVG 20010904//EN"
 "http://www.w3.org/TR/2001/REC-SVG-20010904/DTD/svg10.dtd">
<svg version="1.0" xmlns="http://www.w3.org/2000/svg"
 width="700.000000pt" height="700.000000pt" viewBox="0 0 700.000000 700.000000"
 preserveAspectRatio="xMidYMid meet">
<metadata>
Created by potrace 1.14, written by Peter Selinger 2001-2017
</metadata>
<g transform="translate(0.000000,700.000000) scale(0.100000,-0.100000)"
fill="#000000" stroke="none">
<path d="M1148 6995 c-2 -2 -70 -5 -153 -8 -132 -4 -161 -9 -242 -35 -232 -78
-425 -218 -559 -408 -112 -158 -177 -359 -185 -569 -7 -212 -4 -4781 4 -4935
8 -161 9 -166 22 -240 16 -91 108 -281 186 -382 93 -119 264 -256 395 -314
146 -65 258 -90 430 -95 224 -7 4802 -4 4949 3 105 5 161 13 225 31 342 101
587 329 718 667 31 80 42 155 50 345 9 219 9 4755 0 4940 -8 151 -33 260 -88
382 -73 160 -220 338 -356 430 -134 91 -294 157 -407 169 -34 3 -75 8 -92 11
-28 5 -4892 13 -4897 8z m4737 -475 c158 -50 287 -131 412 -258 116 -119 189
-244 243 -417 l21 -70 0 -2291 0 -2292 -30 -90 c-58 -174 -136 -299 -259 -419
-116 -112 -230 -178 -400 -232 l-82 -26 -2298 1 -2297 1 -65 22 c-181 61 -291
125 -406 239 -126 125 -199 243 -255 415 l-30 92 0 2295 0 2295 30 87 c102
299 298 512 570 618 80 31 139 40 301 47 80 3 147 7 148 8 2 2 977 2 2165 1
l2162 -3 70 -23z"/>
<path d="M2775 5980 c-22 -4 -56 -11 -75 -14 -161 -25 -408 -159 -550 -297
-124 -121 -193 -227 -258 -394 -61 -156 -53 -420 19 -610 48 -129 150 -284
261 -396 172 -174 490 -367 758 -459 52 -19 99 -37 104 -41 5 -5 -2 -33 -17
-68 -32 -74 -49 -163 -47 -250 2 -91 3 -87 -27 -99 -31 -12 -197 -60 -232 -67
-11 -2 -26 -7 -31 -10 -29 -18 -214 -41 -310 -40 -212 5 -337 28 -454 86 -85
42 -123 70 -226 168 -83 78 -126 95 -225 89 -201 -13 -393 -204 -461 -458 -27
-101 -23 -297 9 -421 98 -377 349 -669 685 -795 35 -14 80 -27 100 -30 20 -3
43 -7 51 -10 36 -12 213 -3 296 16 120 26 108 23 206 68 307 141 572 440 747
842 11 25 29 67 41 94 11 27 21 52 21 56 0 4 11 32 24 63 l25 55 48 -24 c77
-37 181 -57 282 -52 l89 4 11 -36 c7 -19 16 -44 21 -55 23 -52 90 -271 100
-327 28 -151 14 -402 -30 -537 -19 -59 -79 -188 -100 -214 -5 -7 -32 -39 -60
-72 -28 -33 -67 -84 -88 -114 -36 -53 -37 -57 -37 -140 1 -76 5 -94 33 -152
101 -209 349 -347 622 -347 57 1 118 4 135 9 16 4 46 10 65 13 76 12 222 69
325 129 287 166 490 441 522 707 13 107 6 264 -16 338 -5 17 -8 32 -6 32 8 0
-55 160 -83 213 -51 96 -115 181 -211 278 -140 142 -297 252 -522 364 -90 46
-116 56 -249 102 -104 36 -103 35 -75 96 36 77 52 162 50 254 -1 44 0 85 4 90
7 10 295 95 386 114 125 25 407 14 536 -22 95 -26 214 -86 265 -134 66 -61
162 -142 183 -154 18 -10 55 -15 116 -16 83 0 96 3 159 34 151 74 287 259 324
441 9 43 9 293 0 335 -44 218 -163 450 -310 606 -99 105 -237 196 -381 249
-93 34 -178 47 -298 44 -271 -7 -512 -118 -728 -335 -186 -186 -345 -446 -456
-744 -20 -55 -38 -101 -39 -103 -2 -1 -28 9 -59 23 -73 34 -187 53 -284 48
l-79 -4 -51 153 c-82 242 -98 326 -97 498 3 254 90 471 269 665 100 109 97
242 -8 400 -76 115 -224 212 -377 250 -73 18 -274 27 -335 15z m797 -2336 c68
-35 93 -78 89 -154 -3 -50 -13 -73 -46 -105 -34 -35 -60 -45 -118 -45 -43 0
-61 5 -90 28 -54 41 -71 78 -65 144 10 124 122 188 230 132z"/>
</g>
</svg>
