<svg width="276" height="59" viewBox="0 0 276 59" fill="none" xmlns="http://www.w3.org/2000/svg">
    <g clip-path="url(#clip0_5_115)">
    <path d="M275.37 50.7934L275.046 44.3766L274.756 37.9599L275.012 38.4496C273.274 37.4027 271.4 36.4571 269.543 35.579C267.686 34.684 265.795 33.8566 263.87 33.0799C260.019 31.5601 256.135 30.1923 252.182 29.061C248.23 27.9296 244.226 26.9671 240.188 26.1734C236.15 25.3798 232.096 24.7719 228.024 24.3329C225.979 24.1133 223.952 23.9276 221.907 23.7925C220.97 23.725 219.829 23.6574 218.841 23.6236C217.853 23.573 216.847 23.5561 215.825 23.5392C211.753 23.4886 207.681 23.6743 203.593 23.9951C199.504 24.3329 195.415 24.8057 191.309 25.346C187.203 25.9033 183.097 26.528 178.974 27.1528C174.851 27.7945 170.711 28.4362 166.537 29.0272C162.38 29.6182 158.189 30.1586 153.981 30.5807C149.773 31.0197 145.53 31.3068 141.288 31.4588C137.046 31.6108 132.77 31.577 128.527 31.3406C124.268 31.1042 120.026 30.6651 115.835 29.9559C111.644 29.2467 107.47 28.3686 103.398 27.1697C99.3259 25.9708 95.3222 24.6199 91.4548 22.9313C87.5704 21.2765 83.8052 19.4021 80.1933 17.3082C84.1118 18.8111 88.0474 20.1789 92.0341 21.3609C94.0274 21.9519 96.0378 22.4754 98.0481 22.982C100.059 23.4548 102.086 23.9107 104.113 24.2822C108.168 25.0421 112.257 25.6331 116.363 25.9877C120.469 26.3254 124.575 26.5112 128.681 26.4943C132.787 26.4943 136.91 26.3085 141.016 25.9877C145.121 25.6837 149.227 25.2109 153.316 24.6875C157.422 24.1471 161.511 23.5223 165.634 22.8807L178.003 20.8712C182.143 20.1958 186.3 19.571 190.491 19.0306C192.587 18.7604 194.699 18.5072 196.812 18.2876C198.924 18.085 201.054 17.9161 203.184 17.7642C205.313 17.6291 207.443 17.5446 209.59 17.494C211.736 17.4602 213.883 17.494 216.03 17.5784C217.103 17.6122 218.176 17.6797 219.284 17.7642C220.391 17.8486 221.328 17.9161 222.47 18.0512C224.599 18.2876 226.712 18.5578 228.824 18.8786C233.05 19.5372 237.224 20.3984 241.347 21.4791C243.408 22.0195 245.453 22.6274 247.48 23.2521C249.507 23.9276 251.518 24.6199 253.494 25.3798C257.464 26.8995 261.348 28.605 265.096 30.6145C268.844 32.607 272.456 34.7853 275.813 37.4365L276.085 37.6391V37.9262L275.779 44.3429L275.455 50.7596L275.37 50.7934Z" fill="url(#paint0_radial_5_115)"/>
    <path d="M5.89468 53.6471C4.83839 52.3638 3.98654 50.9116 3.25394 49.4087C2.87913 48.6657 2.53839 47.889 2.23172 47.1122C1.92505 46.3354 1.6695 45.5249 1.41394 44.7313C1.17543 43.9207 0.970981 43.1102 0.783573 42.2828C0.613203 41.4554 0.45987 40.6279 0.34061 39.7836C0.272462 39.3615 0.238388 38.9393 0.187277 38.5172C0.136166 38.095 0.102092 37.6729 0.0850549 37.2507C0.0169067 36.4064 0.0169067 35.5621 0.0169067 34.7009C0.0509808 33.8566 0.0509808 32.9954 0.136166 32.1511C0.187277 31.3068 0.306536 30.4625 0.408759 29.6182C0.545055 28.7739 0.664314 27.9296 0.851722 27.1022C1.02209 26.2748 1.2095 25.4305 1.43098 24.6199C1.63543 23.7925 1.90802 22.982 2.16357 22.1714C2.40209 21.344 2.74283 20.5673 3.03246 19.7567C3.33913 18.9631 3.67987 18.1863 4.00357 17.3927L5.09394 15.0793L5.74135 13.6946L7.35987 14.3194C8.12654 14.6065 9.08061 14.9104 9.96654 15.1637C10.8865 15.417 11.8065 15.6534 12.7265 15.856C14.5836 16.2613 16.4747 16.599 18.3658 16.8523C22.1651 17.3589 26.0154 17.5447 29.8488 17.4771C31.7739 17.4433 33.6821 17.342 35.6073 17.1732C36.5614 17.0887 37.5154 17.0212 38.4695 16.903C39.4236 16.8017 40.3776 16.6835 41.3317 16.5484C45.131 16.008 48.9132 15.2313 52.6273 14.2519C54.4843 13.7622 56.3414 13.2218 58.1643 12.6308C59.0843 12.3437 59.9873 12.0398 60.9073 11.7189L63.6843 10.7564C65.5414 10.0979 67.3984 9.45621 69.3236 8.83143C71.2317 8.18976 73.1399 7.59874 75.048 7.02462C78.8814 5.89325 82.7317 4.81254 86.6502 3.93446C90.5517 3.02261 94.4873 2.24585 98.4739 1.63795C102.444 1.03005 106.447 0.574129 110.468 0.303951C114.489 0.05066 118.509 -0.0675426 122.53 0.05066C126.551 0.168863 130.555 0.422154 134.541 0.878078C138.528 1.35089 142.481 1.95879 146.399 2.668C150.318 3.37722 154.202 4.28907 158.07 5.23469C161.92 6.21408 165.753 7.22725 169.535 8.3755C173.318 9.52376 177.1 10.672 180.848 11.9554C184.596 13.2049 188.327 14.522 192.041 15.8898C184.324 14.1843 176.623 12.4113 168.922 10.7902C165.055 10.0135 161.221 9.21981 157.354 8.52748C153.487 7.85203 149.619 7.24413 145.752 6.70378C141.884 6.1972 138 5.79193 134.115 5.52175C130.231 5.28535 126.364 5.13337 122.479 5.16715C118.612 5.16715 114.744 5.36978 110.877 5.7075C107.027 6.02834 103.176 6.51803 99.3599 7.1597C97.4517 7.44677 95.5436 7.83515 93.6354 8.18976C91.7443 8.59502 89.8362 8.96652 87.9451 9.43933C84.1628 10.3174 80.3977 11.3137 76.6665 12.4113C72.9184 13.5258 69.2554 14.6402 65.4902 15.9236L62.6621 16.8523C61.708 17.1732 60.7369 17.4771 59.7658 17.7473C57.8236 18.3214 55.8814 18.828 53.9051 19.3008C49.9695 20.2295 45.9828 20.9556 41.9621 21.4116C37.9413 21.8844 33.8865 22.1039 29.8317 22.0026C25.7769 21.9013 21.7221 21.5467 17.7184 20.8374C15.7251 20.4828 13.7317 20.0607 11.7554 19.5034C10.7673 19.2333 9.79617 18.9293 8.82505 18.5916C7.83691 18.2539 6.91691 17.9161 5.87765 17.4433L8.14357 16.6835L6.98505 18.7942C6.62728 19.5203 6.25246 20.2295 5.92876 20.9556C5.62209 21.6986 5.24728 22.4078 4.97468 23.1677C4.68506 23.9107 4.37839 24.6537 4.13987 25.4136C3.86728 26.1734 3.62876 26.9333 3.40728 27.6932C3.16876 28.4531 2.99839 29.2467 2.81098 30.0235C2.65765 30.8002 2.47024 31.5939 2.36802 32.3875C2.23172 33.1812 2.16357 33.9748 2.06135 34.7854C2.01024 35.579 1.94209 36.3895 1.94209 37.2001C1.90802 38.0106 1.94209 38.8042 1.94209 39.6148C1.97617 40.4253 2.04431 41.2358 2.1295 42.0295C2.23172 42.84 2.35098 43.6337 2.50431 44.4273C2.81098 46.0146 3.25394 47.6019 3.79913 49.1385C4.36135 50.6752 5.0258 52.1949 5.89468 53.5965V53.6471Z" fill="#9E999C"/>
    <path d="M5.89468 53.6471C4.83839 52.3638 3.98654 50.9116 3.25394 49.4087C2.87913 48.6657 2.53839 47.889 2.23172 47.1122C1.92505 46.3354 1.6695 45.5249 1.41394 44.7313C1.17543 43.9207 0.970981 43.1102 0.783573 42.2828C0.613203 41.4554 0.45987 40.6279 0.34061 39.7836C0.272462 39.3615 0.238388 38.9393 0.187277 38.5172C0.136166 38.095 0.102092 37.6729 0.0850549 37.2507C0.0169067 36.4064 0.0169067 35.5621 0.0169067 34.7009C0.0509808 33.8566 0.0509808 32.9954 0.136166 32.1511C0.187277 31.3068 0.306536 30.4625 0.408759 29.6182C0.545055 28.7739 0.664314 27.9296 0.851722 27.1022C1.02209 26.2748 1.2095 25.4305 1.43098 24.6199C1.63543 23.7925 1.90802 22.982 2.16357 22.1714C2.40209 21.344 2.74283 20.5673 3.03246 19.7567C3.33913 18.9631 3.67987 18.1863 4.00357 17.3927L5.09394 15.0793L5.74135 13.6946L7.35987 14.3194C8.12654 14.6065 9.08061 14.9104 9.96654 15.1637C10.8865 15.417 11.8065 15.6534 12.7265 15.856C14.5836 16.2613 16.4747 16.599 18.3658 16.8523C22.1651 17.3589 26.0154 17.5447 29.8488 17.4771C31.7739 17.4433 33.6821 17.342 35.6073 17.1732C36.5614 17.0887 37.5154 17.0212 38.4695 16.903C39.4236 16.8017 40.3776 16.6835 41.3317 16.5484C45.131 16.008 48.9132 15.2313 52.6273 14.2519C54.4843 13.7622 56.3414 13.2218 58.1643 12.6308C59.0843 12.3437 59.9873 12.0398 60.9073 11.7189L63.6843 10.7564C65.5414 10.0979 67.3984 9.45621 69.3236 8.83143C71.2317 8.18976 73.1399 7.59874 75.048 7.02462C78.8814 5.89325 82.7317 4.81254 86.6502 3.93446C90.5517 3.02261 94.4873 2.24585 98.4739 1.63795C102.444 1.03005 106.447 0.574129 110.468 0.303951C114.489 0.05066 118.509 -0.0675426 122.53 0.05066C126.551 0.168863 130.555 0.422154 134.541 0.878078C138.528 1.35089 142.481 1.95879 146.399 2.668C150.318 3.37722 154.202 4.28907 158.07 5.23469C161.92 6.21408 165.753 7.22725 169.535 8.3755C173.318 9.52376 177.1 10.672 180.848 11.9554C184.596 13.2049 188.327 14.522 192.041 15.8898C184.324 14.1843 176.623 12.4113 168.922 10.7902C165.055 10.0135 161.221 9.21981 157.354 8.52748C153.487 7.85203 149.619 7.24413 145.752 6.70378C141.884 6.1972 138 5.79193 134.115 5.52175C130.231 5.28535 126.364 5.13337 122.479 5.16715C118.612 5.16715 114.744 5.36978 110.877 5.7075C107.027 6.02834 103.176 6.51803 99.3599 7.1597C97.4517 7.44677 95.5436 7.83515 93.6354 8.18976C91.7443 8.59502 89.8362 8.96652 87.9451 9.43933C84.1628 10.3174 80.3977 11.3137 76.6665 12.4113C72.9184 13.5258 69.2554 14.6402 65.4902 15.9236L62.6621 16.8523C61.708 17.1732 60.7369 17.4771 59.7658 17.7473C57.8236 18.3214 55.8814 18.828 53.9051 19.3008C49.9695 20.2295 45.9828 20.9556 41.9621 21.4116C37.9413 21.8844 33.8865 22.1039 29.8317 22.0026C25.7769 21.9013 21.7221 21.5467 17.7184 20.8374C15.7251 20.4828 13.7317 20.0607 11.7554 19.5034C10.7673 19.2333 9.79617 18.9293 8.82505 18.5916C7.83691 18.2539 6.91691 17.9161 5.87765 17.4433L8.14357 16.6835L6.98505 18.7942C6.62728 19.5203 6.25246 20.2295 5.92876 20.9556C5.62209 21.6986 5.24728 22.4078 4.97468 23.1677C4.68506 23.9107 4.37839 24.6537 4.13987 25.4136C3.86728 26.1734 3.62876 26.9333 3.40728 27.6932C3.16876 28.4531 2.99839 29.2467 2.81098 30.0235C2.65765 30.8002 2.47024 31.5939 2.36802 32.3875C2.23172 33.1812 2.16357 33.9748 2.06135 34.7854C2.01024 35.579 1.94209 36.3895 1.94209 37.2001C1.90802 38.0106 1.94209 38.8042 1.94209 39.6148C1.97617 40.4253 2.04431 41.2358 2.1295 42.0295C2.23172 42.84 2.35098 43.6337 2.50431 44.4273C2.81098 46.0146 3.25394 47.6019 3.79913 49.1385C4.36135 50.6752 5.0258 52.1949 5.89468 53.5965V53.6471Z" fill="black"/>
    <path d="M32.0978 55.0993H24.2948L22.3526 58.6285H17.1904L28.2304 39.2602H33.9889L37.4474 58.6285H32.66L32.0978 55.0993ZM26.203 51.587H31.4504L30.2748 44.1234L26.203 51.587Z" fill="black"/>
    <path d="M42.8481 39.2602H47.8911L45.6081 50.8609C45.523 51.2831 45.4548 51.6377 45.4207 51.9585C45.3867 52.2793 45.3696 52.5664 45.3696 52.8028C45.3696 53.6471 45.5911 54.2888 46.0511 54.6941C46.5111 55.1162 47.1926 55.3188 48.0956 55.3188C49.3222 55.3188 50.2593 54.9811 50.9067 54.3057C51.5541 53.6302 52.0481 52.482 52.3548 50.8609L54.6378 39.2433H59.6807L57.3978 50.8609C56.8355 53.7147 55.7622 55.7917 54.1778 57.075C52.5933 58.3583 50.3274 59 47.38 59C45.063 59 43.3081 58.5103 42.0985 57.5309C40.8889 56.5515 40.2926 55.1331 40.2926 53.2587C40.2926 52.9548 40.3096 52.6002 40.3607 52.2118C40.4118 51.8234 40.48 51.3844 40.5652 50.8778L42.8481 39.2602Z" fill="black"/>
    <path d="M62.2874 39.2602H80.2956L79.5459 43.0426H73.0548L69.9881 58.6285H64.9452L68.0118 43.0426H61.5207L62.2874 39.2602Z" fill="black"/>
    <path d="M91.6933 38.9056C94.3 38.9056 96.3785 39.6148 97.963 41.0501C99.5474 42.4854 100.331 44.3598 100.331 46.6563C100.331 48.2267 100.093 49.7127 99.5985 51.1142C99.1044 52.5157 98.4059 53.7653 97.4859 54.8967C96.3444 56.2645 95.0156 57.2945 93.4652 57.97C91.9148 58.6454 90.1259 58.9831 88.0985 58.9831C85.5089 58.9831 83.4304 58.2739 81.8459 56.8386C80.2615 55.4033 79.4778 53.5458 79.4778 51.2155C79.4778 49.6282 79.7163 48.1422 80.1933 46.7407C80.6704 45.3392 81.3859 44.0727 82.3059 42.9582C83.4304 41.5904 84.7593 40.5773 86.3096 39.9018C87.86 39.2264 89.6489 38.8887 91.6763 38.8887L91.6933 38.9056ZM95.0156 47.1966C95.0156 45.6769 94.6748 44.5117 93.9763 43.7181C93.2778 42.9244 92.2726 42.5192 90.9607 42.5192C89.223 42.5192 87.7578 43.2959 86.5652 44.8495C85.3896 46.403 84.7933 48.3449 84.7933 50.6752C84.7933 52.1611 85.1341 53.3094 85.8326 54.1368C86.5141 54.9642 87.4852 55.3695 88.7119 55.3695C89.717 55.3695 90.603 55.1669 91.3867 54.7447C92.1704 54.3226 92.8348 53.6978 93.38 52.8872C93.9082 52.0936 94.3 51.2155 94.5896 50.2361C94.8793 49.2567 95.0156 48.2436 95.0156 47.1966Z" fill="black"/>
    <path d="M105.681 39.2602H110.724L109.344 46.2172L117.658 39.2602H123.74L112.53 48.6657L120.963 58.6285H115.051L108.475 50.5401L106.89 58.6285H101.847L105.664 39.2602H105.681Z" fill="black"/>
    <path d="M126.449 39.2602H131.492L128.425 54.846H137.25L136.535 58.6285H122.65L126.466 39.2602H126.449Z" fill="black"/>
    <path d="M143.52 39.2602H148.563L144.764 58.6285H139.721L143.52 39.2602Z" fill="black"/>
    <path d="M153.487 39.2602H159.671L162.176 49.5438L168.769 39.2602H175.209L171.393 58.6285H166.622L169.416 44.3429L162.636 54.9136H159.927L157.235 44.3429L154.441 58.6285H149.67L153.487 39.2602Z" fill="black"/>
    <path d="M188.958 55.0993H181.155L179.213 58.6285H174.05L185.09 39.2602H190.849L194.307 58.6285H189.52L188.958 55.0993ZM183.063 51.587H188.31L187.135 44.1234L183.063 51.587Z" fill="black"/>
    <path d="M203.593 51.2999L202.144 58.6285H197.101L200.918 39.2602H208.363C210.51 39.2602 212.128 39.6654 213.253 40.4591C214.36 41.2527 214.922 42.4347 214.922 43.9714C214.922 45.508 214.479 46.8251 213.61 47.8383C212.741 48.8515 211.549 49.4256 210.067 49.5776C210.748 49.7127 211.31 50.0673 211.77 50.6076C212.23 51.1649 212.622 51.9923 212.963 53.1236L214.633 58.6285H209.624L208.159 53.816C207.869 52.8535 207.494 52.1949 207.085 51.8403C206.676 51.4857 206.046 51.2999 205.245 51.2999H203.644H203.593ZM206.387 47.8552C207.528 47.8552 208.397 47.585 208.976 47.0615C209.573 46.5381 209.862 45.7613 209.862 44.7313C209.862 44.0896 209.658 43.6168 209.249 43.3297C208.84 43.0258 208.21 42.8738 207.341 42.8738H205.262L204.274 47.8383H206.387V47.8552Z" fill="#A21418"/>
    <path d="M230.341 55.0993H222.538L220.596 58.6285H215.433L226.473 39.2602H232.232L235.69 58.6285H230.903L230.341 55.0993ZM224.446 51.587H229.693L228.518 44.1234L224.446 51.587Z" fill="#A21418"/>
    <path d="M242.284 39.2602H247.582C250.104 39.2602 252.012 39.4121 253.273 39.7161C254.533 40.02 255.59 40.5097 256.424 41.2189C257.276 41.9113 257.907 42.7725 258.333 43.7687C258.759 44.765 258.98 45.8964 258.98 47.1629C258.98 48.919 258.622 50.5738 257.89 52.1274C257.157 53.6809 256.135 54.9811 254.823 56.0449C253.664 56.9906 252.336 57.666 250.819 58.0544C249.303 58.4596 246.952 58.6454 243.8 58.6454H238.484L242.301 39.277L242.284 39.2602ZM246.611 43.0426L244.26 54.8629H246.066C248.417 54.8629 250.274 54.2044 251.637 52.9041C253 51.6039 253.699 49.8309 253.699 47.6188C253.699 46.1159 253.256 44.9845 252.353 44.2078C251.45 43.431 250.138 43.0595 248.366 43.0595H246.594L246.611 43.0426Z" fill="#A21418"/>
    </g>
    <defs>
    <radialGradient id="paint0_radial_5_115" cx="0" cy="0" r="1" gradientUnits="userSpaceOnUse" gradientTransform="translate(178.071 34.0592) scale(70.2607 69.6382)">
    <stop stop-color="#B92A25"/>
    <stop offset="0.23" stop-color="#B42823"/>
    <stop offset="0.46" stop-color="#A82420"/>
    <stop offset="0.69" stop-color="#941E1A"/>
    <stop offset="0.91" stop-color="#781512"/>
    <stop offset="1" stop-color="#6C110F"/>
    </radialGradient>
    <clipPath id="clip0_5_115">
    <rect width="276" height="59" fill="white"/>
    </clipPath>
    </defs>
    </svg>
    