<svg width="506" height="108" viewBox="0 0 506 108" fill="none" xmlns="http://www.w3.org/2000/svg">
    <g clip-path="url(#clip0_5_146)">
    <path d="M504.844 92.9779L504.251 81.232L503.72 69.4862L504.188 70.3826C501.003 68.4662 497.567 66.7352 494.162 65.1279C490.758 63.4896 487.291 61.975 483.761 60.5532C476.702 57.7713 469.581 55.2675 462.334 53.1966C455.088 51.1256 447.748 49.3637 440.345 47.9109C432.942 46.4581 425.509 45.3454 418.043 44.5417C414.295 44.1399 410.578 43.7999 406.83 43.5526C405.112 43.429 403.02 43.3053 401.208 43.2435C399.396 43.1508 397.554 43.1199 395.68 43.0889C388.214 42.9962 380.749 43.3362 373.253 43.9235C365.757 44.5417 358.261 45.4072 350.733 46.3963C343.205 47.4164 335.678 48.56 328.119 49.7037C320.56 50.8783 312.97 52.0529 305.318 53.1347C297.697 54.2166 290.013 55.2057 282.298 55.9785C274.583 56.7821 266.806 57.3076 259.028 57.5858C251.251 57.864 243.411 57.8022 235.634 57.3694C227.825 56.9367 220.048 56.133 212.364 54.8348C204.68 53.5366 197.028 51.9292 189.563 49.7346C182.098 47.54 174.757 45.0672 167.667 41.9762C160.546 38.947 153.643 35.516 147.021 31.6831C154.205 34.4341 161.42 36.9378 168.729 39.1015C172.384 40.1834 176.069 41.1416 179.755 42.0689C183.441 42.9344 187.158 43.769 190.874 44.449C198.308 45.8399 205.805 46.9218 213.332 47.5709C220.86 48.1891 228.387 48.5291 235.915 48.4982C243.442 48.4982 251.001 48.1582 258.529 47.5709C266.056 47.0145 273.584 46.149 281.08 45.1908C288.607 44.2017 296.104 43.058 303.662 41.8834L326.339 38.2051C333.929 36.9687 341.55 35.8251 349.234 34.8359C353.076 34.3414 356.949 33.8777 360.822 33.4759C364.695 33.105 368.599 32.7959 372.503 32.5177C376.408 32.2704 380.312 32.1158 384.248 32.0231C388.183 31.9613 392.119 32.0231 396.054 32.1777C398.022 32.2395 399.99 32.3631 402.02 32.5177C404.05 32.6722 405.768 32.7959 407.861 33.0431C411.765 33.4759 415.638 33.9705 419.512 34.5577C427.258 35.7632 434.91 37.3397 442.469 39.3179C446.248 40.307 449.996 41.4198 453.713 42.5635C457.43 43.7999 461.116 45.0672 464.739 46.4581C472.017 49.2401 479.138 52.362 486.01 56.0403C492.882 59.6877 499.503 63.6751 505.656 68.528L506.156 68.8989V69.4244L505.594 81.1702L505 92.9161L504.844 92.9779Z" fill="url(#paint0_radial_5_146)"/>
    <path d="M10.8069 98.2016C8.87039 95.8524 7.30866 93.1942 5.96558 90.4432C5.27842 89.0831 4.65373 87.6613 4.0915 86.2394C3.52928 84.8175 3.06076 83.3338 2.59224 81.8811C2.15496 80.3974 1.78015 78.9137 1.43657 77.3991C1.12422 75.8845 0.843108 74.3699 0.624466 72.8244C0.499528 72.0516 0.437059 71.2789 0.343355 70.5061C0.249652 69.7334 0.187183 68.9606 0.155948 68.1879C0.0310097 66.6424 0.0310097 65.0969 0.0310097 63.5204C0.0934788 61.9749 0.0934788 60.3985 0.249652 58.853C0.343355 57.3075 0.561997 55.762 0.749405 54.2165C0.999281 52.671 1.21792 51.1255 1.5615 49.6109C1.87385 48.0963 2.21743 46.5508 2.62348 45.0671C2.99829 43.5525 3.49805 42.0688 3.96657 40.5851C4.40385 39.0705 5.02854 37.6487 5.55953 36.165C6.12175 34.7122 6.74644 33.2903 7.3399 31.8376L9.33891 27.6029L10.5258 25.0682L13.4931 26.2119C14.8987 26.7374 16.6478 27.2938 18.272 27.7574C19.9587 28.2211 21.6453 28.6538 23.332 29.0247C26.7366 29.7666 30.2036 30.3848 33.6706 30.8484C40.6359 31.7757 47.695 32.1157 54.7227 31.9921C58.2522 31.9303 61.7505 31.7448 65.28 31.4357C67.0292 31.2812 68.7783 31.1575 70.5274 30.9412C72.2766 30.7557 74.0257 30.5393 75.7748 30.292C82.7401 29.3029 89.6742 27.8811 96.4834 26.0883C99.8879 25.1919 103.292 24.2027 106.635 23.1209C108.321 22.5954 109.977 22.039 111.663 21.4517L116.755 19.6899C120.159 18.4844 123.564 17.3098 127.093 16.1661C130.592 14.9915 134.09 13.9097 137.588 12.8587C144.616 10.7877 151.675 8.8095 158.859 7.20217C166.012 5.53303 173.227 4.11116 180.536 2.9984C187.813 1.88563 195.153 1.05106 202.525 0.556495C209.896 0.0928433 217.267 -0.123528 224.639 0.0928433C232.01 0.309214 239.35 0.772866 246.659 1.60744C253.968 2.47292 261.214 3.58569 268.398 4.88391C275.582 6.18214 282.704 7.85129 289.794 9.58225C296.853 11.375 303.881 13.2297 310.815 15.3315C317.749 17.4334 324.683 19.5353 331.555 21.8845C338.426 24.1718 345.267 26.5828 352.076 29.0865C337.927 25.9646 323.809 22.7191 309.691 19.7517C302.6 18.3298 295.573 16.877 288.482 15.6097C281.392 14.3733 274.302 13.2606 267.212 12.2714C260.121 11.3441 253 10.6023 245.878 10.1077C238.757 9.67498 231.667 9.39679 224.545 9.45861C217.455 9.45861 210.365 9.82954 203.274 10.4477C196.215 11.035 189.156 11.9314 182.16 13.106C178.662 13.6315 175.163 14.3424 171.665 14.9915C168.198 15.7334 164.7 16.4134 161.233 17.2789C154.299 18.8862 147.396 20.7099 140.555 22.7191C133.684 24.7591 126.968 26.7992 120.065 29.1484L114.881 30.8484C113.131 31.4357 111.351 31.9921 109.571 32.4867C106.01 33.5376 102.449 34.4649 98.8259 35.3304C91.6108 37.0305 84.3019 38.3596 76.9305 39.1942C69.5592 40.0597 62.1253 40.4615 54.6915 40.276C47.2577 40.0906 39.8238 39.4414 32.4837 38.1432C28.8293 37.4941 25.1748 36.7214 21.5516 35.7013C19.74 35.2068 17.9597 34.6504 16.1793 34.0322C14.3677 33.414 12.681 32.7958 10.7757 31.9303L14.9299 30.5393L12.8059 34.4031C12.15 35.7322 11.4629 37.0305 10.8694 38.3596C10.3072 39.7196 9.62002 41.0179 9.12027 42.4088C8.58928 43.7689 8.02706 45.1289 7.58978 46.5199C7.09002 47.9108 6.65274 49.3018 6.24669 50.6927C5.8094 52.0837 5.49706 53.5365 5.15348 54.9583C4.87237 56.3802 4.52879 57.833 4.34138 59.2858C4.0915 60.7385 3.96657 62.1913 3.77916 63.675C3.68545 65.1278 3.56052 66.6115 3.56052 68.0951C3.49805 69.5788 3.56052 71.0316 3.56052 72.5153C3.62299 73.999 3.74792 75.4827 3.9041 76.9354C4.0915 78.4191 4.31015 79.8719 4.59126 81.3247C5.15348 84.2302 5.96558 87.1358 6.96508 89.9486C7.99582 92.7614 9.21397 95.5433 10.8069 98.1089V98.2016Z" fill="#9E999C"/>
    <path d="M10.8069 98.2016C8.87039 95.8524 7.30866 93.1942 5.96558 90.4432C5.27842 89.0831 4.65373 87.6613 4.0915 86.2394C3.52928 84.8175 3.06076 83.3338 2.59224 81.8811C2.15496 80.3974 1.78015 78.9137 1.43657 77.3991C1.12422 75.8845 0.843108 74.3699 0.624466 72.8244C0.499528 72.0516 0.437059 71.2789 0.343355 70.5061C0.249652 69.7334 0.187183 68.9606 0.155948 68.1879C0.0310097 66.6424 0.0310097 65.0969 0.0310097 63.5204C0.0934788 61.9749 0.0934788 60.3985 0.249652 58.853C0.343355 57.3075 0.561997 55.762 0.749405 54.2165C0.999281 52.671 1.21792 51.1255 1.5615 49.6109C1.87385 48.0963 2.21743 46.5508 2.62348 45.0671C2.99829 43.5525 3.49805 42.0688 3.96657 40.5851C4.40385 39.0705 5.02854 37.6487 5.55953 36.165C6.12175 34.7122 6.74644 33.2903 7.3399 31.8376L9.33891 27.6029L10.5258 25.0682L13.4931 26.2119C14.8987 26.7374 16.6478 27.2938 18.272 27.7574C19.9587 28.2211 21.6453 28.6538 23.332 29.0247C26.7366 29.7666 30.2036 30.3848 33.6706 30.8484C40.6359 31.7757 47.695 32.1157 54.7227 31.9921C58.2522 31.9303 61.7505 31.7448 65.28 31.4357C67.0292 31.2812 68.7783 31.1575 70.5274 30.9412C72.2766 30.7557 74.0257 30.5393 75.7748 30.292C82.7401 29.3029 89.6742 27.8811 96.4834 26.0883C99.8879 25.1919 103.292 24.2027 106.635 23.1209C108.321 22.5954 109.977 22.039 111.663 21.4517L116.755 19.6899C120.159 18.4844 123.564 17.3098 127.093 16.1661C130.592 14.9915 134.09 13.9097 137.588 12.8587C144.616 10.7877 151.675 8.8095 158.859 7.20217C166.012 5.53303 173.227 4.11116 180.536 2.9984C187.813 1.88563 195.153 1.05106 202.525 0.556495C209.896 0.0928433 217.267 -0.123528 224.639 0.0928433C232.01 0.309214 239.35 0.772866 246.659 1.60744C253.968 2.47292 261.214 3.58569 268.398 4.88391C275.582 6.18214 282.704 7.85129 289.794 9.58225C296.853 11.375 303.881 13.2297 310.815 15.3315C317.749 17.4334 324.683 19.5353 331.555 21.8845C338.426 24.1718 345.267 26.5828 352.076 29.0865C337.927 25.9646 323.809 22.7191 309.691 19.7517C302.6 18.3298 295.573 16.877 288.482 15.6097C281.392 14.3733 274.302 13.2606 267.212 12.2714C260.121 11.3441 253 10.6023 245.878 10.1077C238.757 9.67498 231.667 9.39679 224.545 9.45861C217.455 9.45861 210.365 9.82954 203.274 10.4477C196.215 11.035 189.156 11.9314 182.16 13.106C178.662 13.6315 175.163 14.3424 171.665 14.9915C168.198 15.7334 164.7 16.4134 161.233 17.2789C154.299 18.8862 147.396 20.7099 140.555 22.7191C133.684 24.7591 126.968 26.7992 120.065 29.1484L114.881 30.8484C113.131 31.4357 111.351 31.9921 109.571 32.4867C106.01 33.5376 102.449 34.4649 98.8259 35.3304C91.6108 37.0305 84.3019 38.3596 76.9305 39.1942C69.5592 40.0597 62.1253 40.4615 54.6915 40.276C47.2577 40.0906 39.8238 39.4414 32.4837 38.1432C28.8293 37.4941 25.1748 36.7214 21.5516 35.7013C19.74 35.2068 17.9597 34.6504 16.1793 34.0322C14.3677 33.414 12.681 32.7958 10.7757 31.9303L14.9299 30.5393L12.8059 34.4031C12.15 35.7322 11.4629 37.0305 10.8694 38.3596C10.3072 39.7196 9.62002 41.0179 9.12027 42.4088C8.58928 43.7689 8.02706 45.1289 7.58978 46.5199C7.09002 47.9108 6.65274 49.3018 6.24669 50.6927C5.8094 52.0837 5.49706 53.5365 5.15348 54.9583C4.87237 56.3802 4.52879 57.833 4.34138 59.2858C4.0915 60.7385 3.96657 62.1913 3.77916 63.675C3.68545 65.1278 3.56052 66.6115 3.56052 68.0951C3.49805 69.5788 3.56052 71.0316 3.56052 72.5153C3.62299 73.999 3.74792 75.4827 3.9041 76.9354C4.0915 78.4191 4.31015 79.8719 4.59126 81.3247C5.15348 84.2302 5.96558 87.1358 6.96508 89.9486C7.99582 92.7614 9.21397 95.5433 10.8069 98.1089V98.2016Z" fill="white"/>
    <path d="M58.8459 100.86H44.5405L40.9798 107.32H31.5157L51.7557 71.866H62.313L68.6536 107.32H59.8767L58.8459 100.86ZM48.0388 94.4304H57.659L55.5038 80.7681L48.0388 94.4304Z" fill="white"/>
    <path d="M78.5549 71.8661H87.8004L83.6149 93.1014C83.4588 93.8741 83.3338 94.5232 83.2714 95.1105C83.2089 95.6978 83.1776 96.2233 83.1776 96.656C83.1776 98.2015 83.5837 99.3761 84.427 100.118C85.2704 100.891 86.5197 101.262 88.1752 101.262C90.4241 101.262 92.142 100.643 93.3289 99.407C94.5158 98.1706 95.4216 96.0688 95.9838 93.1014L100.169 71.8352H109.415L105.229 93.1014C104.199 98.3252 102.231 102.127 99.3259 104.476C96.4211 106.825 92.2669 108 86.8633 108C82.6154 108 79.3983 107.104 77.1806 105.311C74.963 103.518 73.8697 100.922 73.8697 97.4906C73.8697 96.9342 73.901 96.2851 73.9947 95.5742C74.0884 94.8633 74.2133 94.0596 74.3695 93.1323L78.5549 71.8661Z" fill="white"/>
    <path d="M114.194 71.866H147.209L145.834 78.7898H133.934L128.312 107.32H119.066L124.688 78.7898H112.788L114.194 71.866Z" fill="white"/>
    <path d="M168.104 71.2169C172.883 71.2169 176.694 72.5152 179.599 75.1425C182.504 77.7699 183.94 81.2009 183.94 85.4047C183.94 88.2793 183.503 90.9994 182.597 93.565C181.691 96.1305 180.411 98.4179 178.724 100.489C176.631 102.993 174.195 104.878 171.353 106.114C168.51 107.351 165.231 107.969 161.514 107.969C156.766 107.969 152.956 106.671 150.051 104.044C147.146 101.416 145.709 98.016 145.709 93.7504C145.709 90.8449 146.147 88.1248 147.021 85.5592C147.896 82.9937 149.208 80.6754 150.894 78.6354C152.956 76.1317 155.392 74.277 158.234 73.0406C161.077 71.8042 164.356 71.186 168.073 71.186L168.104 71.2169ZM174.195 86.3938C174.195 83.6119 173.57 81.4791 172.29 80.0263C171.009 78.5736 169.166 77.8317 166.761 77.8317C163.575 77.8317 160.889 79.2536 158.703 82.0973C156.548 84.941 155.454 88.4957 155.454 92.7613C155.454 95.4814 156.079 97.5833 157.36 99.0979C158.609 100.612 160.389 101.354 162.638 101.354C164.481 101.354 166.105 100.983 167.542 100.211C168.979 99.4379 170.197 98.2942 171.197 96.8105C172.165 95.3578 172.883 93.7504 173.414 91.9576C173.945 90.1649 174.195 88.3102 174.195 86.3938Z" fill="white"/>
    <path d="M193.748 71.866H202.993L200.463 84.6009L215.706 71.866H226.857L206.304 89.0829L221.765 107.32H210.927L198.87 92.5139L195.966 107.32H186.72L193.717 71.866H193.748Z" fill="white"/>
    <path d="M231.823 71.866H241.068L235.446 100.396H251.626L250.314 107.32H224.858L231.854 71.866H231.823Z" fill="white"/>
    <path d="M263.12 71.866H272.365L265.4 107.32H256.155L263.12 71.866Z" fill="white"/>
    <path d="M281.392 71.866H292.73L297.322 90.6902L309.41 71.866H321.216L314.22 107.32H305.474L310.597 81.1699L298.165 100.52H293.199L288.264 81.1699L283.141 107.32H274.396L281.392 71.866Z" fill="white"/>
    <path d="M346.423 100.86H332.117L328.556 107.32H319.092L339.332 71.866H349.89L356.23 107.32H347.453L346.423 100.86ZM335.615 94.4304H345.236L343.081 80.7681L335.615 94.4304Z" fill="white"/>
    <path d="M373.253 93.9049L370.598 107.32H361.353L368.349 71.866H381.999C385.934 71.866 388.902 72.6078 390.963 74.0606C392.993 75.5134 394.024 77.6771 394.024 80.4899C394.024 83.3027 393.212 85.7137 391.619 87.5683C390.026 89.4229 387.84 90.4739 385.122 90.7521C386.372 90.9993 387.402 91.6484 388.246 92.6376C389.089 93.6576 389.807 95.1722 390.432 97.2432L393.493 107.32H384.31L381.624 98.5105C381.093 96.7486 380.406 95.5431 379.656 94.894C378.907 94.2449 377.751 93.9049 376.283 93.9049H373.347H373.253ZM378.376 87.5992C380.468 87.5992 382.061 87.1047 383.123 86.1465C384.216 85.1882 384.747 83.7664 384.747 81.8808C384.747 80.7063 384.373 79.8408 383.623 79.3153C382.873 78.7589 381.718 78.4807 380.125 78.4807H376.314L374.502 87.5683H378.376V87.5992Z" fill="#A21418"/>
    <path d="M422.291 100.86H407.986L404.425 107.32H394.961L415.201 71.866H425.758L432.099 107.32H423.322L422.291 100.86ZM411.484 94.4304H421.104L418.949 80.7681L411.484 94.4304Z" fill="#A21418"/>
    <path d="M444.187 71.866H453.901C458.523 71.866 462.022 72.1442 464.333 72.7005C466.644 73.2569 468.581 74.1533 470.111 75.4515C471.673 76.7189 472.829 78.2953 473.61 80.119C474.391 81.9427 474.797 84.0136 474.797 86.3319C474.797 89.5466 474.141 92.5758 472.798 95.4195C471.455 98.2632 469.581 100.643 467.175 102.591C465.052 104.322 462.615 105.558 459.835 106.269C457.055 107.011 452.745 107.351 446.967 107.351H437.221L444.218 71.8969L444.187 71.866ZM452.12 78.7898L447.81 100.427H451.121C455.431 100.427 458.836 99.2214 461.335 96.8413C463.833 94.4613 465.114 91.2157 465.114 87.1665C465.114 84.4155 464.302 82.3445 462.646 80.9226C460.991 79.5008 458.586 78.8207 455.338 78.8207H452.089L452.12 78.7898Z" fill="#A21418"/>
    </g>
    <defs>
    <radialGradient id="paint0_radial_5_146" cx="0" cy="0" r="1" gradientUnits="userSpaceOnUse" gradientTransform="translate(326.464 62.346) scale(128.811 127.473)">
    <stop stop-color="#B92A25"/>
    <stop offset="0.23" stop-color="#B42823"/>
    <stop offset="0.46" stop-color="#A82420"/>
    <stop offset="0.69" stop-color="#941E1A"/>
    <stop offset="0.91" stop-color="#781512"/>
    <stop offset="1" stop-color="#6C110F"/>
    </radialGradient>
    <clipPath id="clip0_5_146">
    <rect width="506" height="108" fill="white"/>
    </clipPath>
    </defs>
    </svg>
    