<svg width="38" height="50" viewBox="0 0 38 50" fill="none" xmlns="http://www.w3.org/2000/svg">
    <path d="M7.57889 1.37785C12.5189 -2.39276 17.8811 2.21114 19.0844 9.37738C19.9922 9.37738 20.8789 9.62737 21.6811 10.0857C22.7789 8.83575 23.75 7.12752 23.37 5.21096C22.4833 0.732058 27.5711 -2.89273 32.4056 3.29441C36.2267 8.16912 31.5611 13.4605 24.2778 14.6479C24.2778 15.5437 24.0456 16.4395 23.56 17.2311C24.8267 18.2935 26.5578 19.2518 28.5 18.8768C32.9967 18.0019 36.6911 23.0016 30.4211 27.793C25.4811 31.5636 20.1189 26.9597 18.9156 19.7934C18.0078 19.7934 17.1211 19.5226 16.34 19.0643C15.2422 20.3142 14.25 22.0433 14.63 23.9599C15.5167 28.4179 10.4289 32.0636 5.59444 25.8764C1.75222 20.9809 6.43889 15.6895 13.7222 14.5229C13.7222 13.6271 13.9967 12.7522 14.4611 11.9606C13.1944 10.8981 11.4633 9.91902 9.5 10.294C5.00333 11.1689 1.30889 6.16924 7.57889 1.37785ZM4.22222 33.3343H8.44444C9.56425 33.3343 10.6382 33.7733 11.43 34.5546C12.2218 35.336 12.6667 36.3957 12.6667 37.5007V50H8.44444V45.8336H4.22222V50H0V37.5007C0 36.3957 0.44484 35.336 1.23666 34.5546C2.02848 33.7733 3.10242 33.3343 4.22222 33.3343ZM4.22222 37.5007V41.6672H8.44444V37.5007H4.22222ZM20.9633 33.3343H25.3333L19.1478 50H14.7778L20.9633 33.3343ZM31.6667 33.3343H38V37.5007H31.6667V45.8336H38V50H31.6667C30.5469 50 29.4729 49.561 28.6811 48.7797C27.8893 47.9983 27.4444 46.9386 27.4444 45.8336V37.5007C27.4444 36.3957 27.8893 35.336 28.6811 34.5546C29.4729 33.7733 30.5469 33.3343 31.6667 33.3343Z" fill="white"/>
    </svg>
    