<svg width="27" height="50" viewBox="0 0 27 50" fill="none" xmlns="http://www.w3.org/2000/svg">
    <path d="M23.8582 21.075C18.8509 15.975 18.4091 6.65 18.4091 5H14.7273V10H4.90909V5H0C0 2.25 2.20909 0 4.90909 0H22.0909V2.5C22.0909 2.7 22.1891 14.075 26.46 18.425L23.8582 21.075ZM24.5455 0V5H27V0H24.5455ZM19.6364 25C14.7273 20 14.7273 12.5 14.7273 12.5H4.90909V17.5C4.90909 20 4.90909 20 2.45455 22.5C0 25 0 27.5 0 27.5V45C0 47.75 2.20909 50 4.90909 50H14.7273C17.4273 50 19.6364 47.75 19.6364 45V25Z" fill="white"/>
    </svg>
    