<svg width="42" height="42" viewBox="0 0 42 42" fill="none" xmlns="http://www.w3.org/2000/svg">
    <path d="M36.6762 9.18571C33.8707 9.22673 31.5656 11.5155 31.5082 14.3211C31.4672 16.3146 32.5336 18.062 34.1332 18.9808V28.218C34.1332 32.9186 30.0152 36.7497 24.9457 36.7497C20.0238 36.7497 15.9879 33.1319 15.7664 28.6118C21.7383 27.3812 26.25 22.0817 26.25 15.7486V3.00022C26.25 2.06501 25.5855 1.25285 24.6668 1.07238L19.507 0.0387257C18.4406 -0.174567 17.407 0.514533 17.1938 1.581L16.9312 2.86896C16.718 3.93542 17.407 4.96907 18.4734 5.18237L20.9918 5.68278V15.6419C20.9918 19.9816 17.5301 23.5748 13.1906 23.6158C8.81016 23.6568 5.2418 20.1129 5.2418 15.7404V5.69099L7.76016 5.19057C8.82656 4.97728 9.51562 3.94363 9.30234 2.87716L9.04805 1.5892C8.83477 0.522736 7.80117 -0.166364 6.73477 0.0469293L1.5832 1.06417C0.664453 1.25285 0 2.0568 0 3.00022V15.7486C0 22.0899 4.51992 27.3976 10.5082 28.6118C10.7215 36.0278 17.1117 42 24.9375 42C32.8945 42 39.375 35.8145 39.375 28.218V18.9808C40.9418 18.0702 42 16.3802 42 14.436C42 11.5073 39.6047 9.14469 36.6762 9.18571ZM36.75 15.7486C36.0281 15.7486 35.4375 15.1579 35.4375 14.436C35.4375 13.7141 36.0281 13.1234 36.75 13.1234C37.4719 13.1234 38.0625 13.7141 38.0625 14.436C38.0625 15.1579 37.4719 15.7486 36.75 15.7486Z" fill="white"/>
    </svg>
    