<svg width="54" height="78" viewBox="0 0 54 78" fill="none" xmlns="http://www.w3.org/2000/svg">
    <path d="M54 27.3C54 23.7149 53.3016 20.1649 51.9448 16.8527C50.5879 13.5406 48.5991 10.531 46.0919 7.99598C43.5847 5.46095 40.6082 3.45004 37.3325 2.07809C34.0567 0.706135 30.5457 0 27 0C23.4543 0 19.9433 0.706135 16.6675 2.07809C13.3918 3.45004 10.4153 5.46095 7.90812 7.99598C5.40093 10.531 3.41213 13.5406 2.05525 16.8527C0.698375 20.1649 -5.28349e-08 23.7149 0 27.3C0 32.7093 1.57757 37.7403 4.26214 41.9835H4.23129L27 78L49.7687 41.9835H49.7417C52.5222 37.6022 54.0002 32.5058 54 27.3ZM27 39C23.9311 39 20.9878 37.7673 18.8178 35.5732C16.6477 33.379 15.4286 30.403 15.4286 27.3C15.4286 24.197 16.6477 21.221 18.8178 19.0269C20.9878 16.8327 23.9311 15.6 27 15.6C30.0689 15.6 33.0122 16.8327 35.1822 19.0269C37.3523 21.221 38.5714 24.197 38.5714 27.3C38.5714 30.403 37.3523 33.379 35.1822 35.5732C33.0122 37.7673 30.0689 39 27 39Z" fill="#FF0000"/>
    </svg>
    