<svg width="78" height="78" viewBox="0 0 78 78" fill="none" xmlns="http://www.w3.org/2000/svg">
    <path d="M77.9957 58.1533V73.476C77.9962 74.5731 77.5805 75.6296 76.8326 76.4322C76.0847 77.2348 75.0602 77.7239 73.9659 77.8007C72.0723 77.9307 70.5254 78 69.3295 78C31.0379 78 0 46.9603 0 8.66667C0 7.47067 0.0649964 5.92367 0.199322 4.03C0.276115 2.93559 0.765143 1.91105 1.56773 1.1631C2.37031 0.415163 3.42671 -0.000495877 4.52375 1.11184e-06H19.8456C20.383 -0.000543116 20.9015 0.198723 21.3003 0.559089C21.6991 0.919455 21.9497 1.41519 22.0034 1.95C22.1031 2.94667 22.1941 3.73967 22.2808 4.342C23.1419 10.352 24.9066 16.1973 27.5151 21.6797C27.9268 22.5463 27.6581 23.582 26.8782 24.1367L17.5274 30.8187C23.2447 44.1413 33.8612 54.7584 47.183 60.476L53.856 51.142C54.1288 50.7607 54.5267 50.4872 54.9804 50.3692C55.4342 50.2512 55.9149 50.2962 56.3389 50.4963C61.8202 53.1003 67.6637 54.8608 73.6712 55.718C74.2735 55.8047 75.0665 55.8957 76.0544 55.9953C76.5884 56.0501 77.0831 56.3011 77.4426 56.6998C77.802 57.0985 77.9963 57.6165 77.9957 58.1533Z" fill="#FF0000"/>
    </svg>
    