<svg width="44" height="44" viewBox="0 0 44 44" fill="none" xmlns="http://www.w3.org/2000/svg">
    <path fill-rule="evenodd" clip-rule="evenodd" d="M44 11.0029C43.9998 12.5075 43.691 13.996 43.0927 15.3764C42.4944 16.7569 41.6192 17.9999 40.5214 19.0287C39.4236 20.0576 38.1264 20.8503 36.71 21.3579C35.2936 21.8655 33.7882 22.0772 32.2868 21.9799C30.1524 21.8454 27.8665 22.2928 26.4974 23.9357L11.7697 41.6112C11.1768 42.3206 10.4426 42.8988 9.61396 43.3089C8.78532 43.7191 7.88035 43.9522 6.95669 43.9934C6.03302 44.0346 5.11089 43.8831 4.24901 43.5484C3.38712 43.2137 2.60437 42.7032 1.95059 42.0495C1.29681 41.3957 0.786328 40.613 0.451641 39.7511C0.116954 38.8893 -0.0346019 37.9672 0.00662385 37.0436C0.0478496 36.1199 0.280953 35.215 0.691093 34.3864C1.10123 33.5578 1.67942 32.8236 2.38885 32.2307L20.065 17.506C21.708 16.1369 22.1554 13.8511 22.0209 11.7168C21.9042 9.9257 22.2275 8.13324 22.9626 6.49576C23.6977 4.85829 24.8224 3.42555 26.2384 2.32251C27.6544 1.21948 29.3189 0.479652 31.0865 0.16757C32.8541 -0.144513 34.6713 -0.0193737 36.3794 0.532072C37.1716 0.788771 37.3329 1.7789 36.7462 2.37053L30.1622 8.94935C30.0028 9.10141 29.8922 9.29736 29.8443 9.51237C29.7965 9.72737 29.8135 9.95175 29.8933 10.1571C30.6397 11.9435 32.0601 13.3639 33.8466 14.1102C34.2622 14.2814 34.7341 14.1591 35.0519 13.8389L41.6334 7.25758C42.2226 6.6684 43.2152 6.8322 43.4719 7.6243C43.8142 8.68777 44 9.82457 44 11.0029ZM7.32742 39.1176C7.97583 39.1176 8.59769 38.86 9.05618 38.4015C9.51468 37.9431 9.77226 37.3212 9.77226 36.6728C9.77226 36.0245 9.51468 35.4026 9.05618 34.9441C8.59769 34.4857 7.97583 34.2281 7.32742 34.2281C6.67901 34.2281 6.05715 34.4857 5.59866 34.9441C5.14016 35.4026 4.88258 36.0245 4.88258 36.6728C4.88258 37.3212 5.14016 37.9431 5.59866 38.4015C6.05715 38.86 6.67901 39.1176 7.32742 39.1176Z" fill="white"/>
    </svg>
    